# xmcd
#
# Track frame offsets: 
#        150
#        14244
#        27992
#        47932
#        69018
#        85745
#        103998
#        120779
#        141791
#
# Disc length: 2104 seconds
#
# Revision: 0
# Processed by: cddbd v1.5.2PL0 Copyright (c) Steve Scherf et al.
# Submitted via: ExactAudioCopy v1.1
#
DISCID=73083609
DTITLE=Ajattara - Lupaus
DYEAR=2017
DGENRE=Dark Metal
TTITLE0=Saatanan Sinetti
TTITLE1=Ristinkirot
TTITLE2=Suru
TTITLE3=S.I.N.Ä.
TTITLE4=Amen
TTITLE5=Ave Satana
TTITLE6=Uhrilahja
TTITLE7=Lupaus
TTITLE8=Machete
EXTD=
EXTT0=
EXTT1=
EXTT2=
EXTT3=
EXTT4=
EXTT5=
EXTT6=
EXTT7=
EXTT8=
PLAYORDER=
